<svg width="600" height="600" viewBox="0 0 600 600" fill="none" xmlns="http://www.w3.org/2000/svg">
<path fill-rule="evenodd" clip-rule="evenodd" d="M188.006 477.879C151.137 484.152 114.619 492.337 78.6001 502.4C84.2571 508.583 90.1699 514.515 96.3385 520.197C171.155 526.946 257.938 549.67 343.11 572.009C360.023 576.439 376.81 580.834 393.405 585.081C431.695 572.52 467.057 552.362 497.373 525.814C482.985 522.532 468.644 519.224 454.35 515.889C350.571 491.734 252.549 468.976 188.006 477.879Z" fill="#3DAC7A"/>
<path fill-rule="evenodd" clip-rule="evenodd" d="M129.729 546.955C179.754 581.571 239.161 600.078 299.995 599.998C315.59 599.995 331.161 598.783 346.569 596.376C343.489 595.577 340.427 594.772 337.341 593.961C266.295 575.339 194.099 556.433 129.729 546.955Z" fill="#3DAC7A"/>
<path fill-rule="evenodd" clip-rule="evenodd" d="M306.836 461.565C354.053 469.25 406.002 481.327 459.485 493.775C478.573 498.209 497.819 502.674 517.039 506.981C537.984 485.048 555.49 460.072 568.962 432.902C517.805 441.531 461.031 446.805 401.57 452.287C370.633 455.137 338.92 458.073 306.836 461.565Z" fill="#3DAC7A"/>
<path fill-rule="evenodd" clip-rule="evenodd" d="M542.247 414.132C489.029 408.957 438.887 396.144 387.096 382.791C279.165 354.99 167.832 326.381 5.86157 359.141C14.9277 404.352 34.3475 446.847 62.5971 483.291C173.472 450.575 291.116 439.688 399.486 429.684C449.73 425.047 497.979 420.583 542.247 414.132Z" fill="#48CD91"/>
<path fill-rule="evenodd" clip-rule="evenodd" d="M586.108 209.572L398.425 194.458L575.076 180.229C567.389 162.599 558.021 145.751 547.1 129.92C402.291 127.699 301.811 84.5839 211.344 45.7332C198.007 40.003 184.785 34.3296 171.577 28.8467C147.851 40.1389 125.711 54.4981 105.724 71.5558L215.441 77.4463L91.9007 84.0765C55.4419 119.125 28.4389 162.824 13.403 211.111L338.386 228.549L4.85938 246.436C-0.610848 276.218 -1.46861 306.664 2.31614 336.706C169.506 303.308 287.547 333.703 392.765 360.813C456.578 377.256 517.785 392.929 584.993 393.699C604.614 333.951 605.004 269.554 586.108 209.572Z" fill="#48CD91"/>
<path fill-rule="evenodd" clip-rule="evenodd" d="M529.475 106.836C490.343 60.3217 438.001 26.7966 379.385 10.7028C320.769 -5.39098 258.647 -3.29352 201.25 16.7172C207.588 19.4099 213.941 22.1277 220.308 24.8708C308.83 62.891 399.813 101.878 529.475 106.836Z" fill="#56F2AC"/>
</svg>
